<svg width="24" height="24" xmlns="http://www.w3.org/2000/svg">
 <title/>

 <g>
  <title>background</title>
  <rect fill="none" id="canvas_background" height="402" width="582" y="-1" x="-1"/>
 </g>
 <g>
  <title>Layer 1</title>
  <path fill="#ffffff" id="svg_1" d="m12.103,0c6.563,0 11.897,5.485 11.897,11.997c0,6.51 -5.33,11.99 -11.9,11.99l-12.1,0.013l0,-12.21c0,-6.51 5.532,-11.79 12.103,-11.79zm0.116,4.563c-2.593,-0.003 -4.996,1.352 -6.337,3.57c-1.33,2.208 -1.387,4.957 -0.148,7.22l-1.334,4.257l4.794,-1.074c2.745,1.225 5.965,0.676 8.136,-1.39c2.17,-2.054 2.86,-5.228 1.737,-7.997c-1.135,-2.778 -3.84,-4.59 -6.84,-4.585l-0.008,0l0,-0.001z"/>
 </g>
</svg>